PathFileType	4	(X/Y/Z)	Patient4_TMGait_0pt5_02_right_25.trc.trc
DataRate	CameraRate	NumFrames	NumMarkers	Units	OrigDataRate	OrigDataStartFrame	OrigNumFrames
76.923076923077	76.923076923077	5	33	mm	76.923076923077	53	       141
Frame#	Time	Sacral			L.Shoulder			Chest			R.Shoulder			Neck			R.ASIS			L.ASIS			R.Thigh.Superior			R.Thigh.Lateral			R.Thigh.Inferior			R.Patella			L.Thigh.Superior			L.Thigh.Lateral			L.Thigh.Inferior			L.Patella			L.Shank.Superior			L.Shank.Lateral			L.Shank.Inferior			R.Shank.Superior			R.Shank.Lateral			R.Shank.Inferior			R.Heel			R.Midfoot.Superior			R.Midfoot.Lateral			R.Toe			L.Heel			L.Midfoot.Lateral			L.Midfoot.Superior			L.Toe			L.Elbow			L.Wrist			R.Elbow			R.Wrist			
		X1	Y1	Z1	X2	Y2	Z2	X3	Y3	Z3	X4	Y4	Z4	X5	Y5	Z5	X6	Y6	Z6	X7	Y7	Z7	X8	Y8	Z8	X9	Y9	Z9	X10	Y10	Z10	X11	Y11	Z11	X12	Y12	Z12	X13	Y13	Z13	X14	Y14	Z14	X15	Y15	Z15	X16	Y16	Z16	X17	Y17	Z17	X18	Y18	Z18	X19	Y19	Z19	X20	Y20	Z20	X21	Y21	Z21	X22	Y22	Z22	X23	Y23	Z23	X24	Y24	Z24	X25	Y25	Z25	X26	Y26	Z26	X27	Y27	Z27	X28	Y28	Z28	X29	Y29	Z29	X30	Y30	Z30	X31	Y31	Z31	X32	Y32	Z32	X33	Y33	Z33	

53	33.266000000000	563.756617685636	1008.489166615100	516.910529477552	719.514082135835	1439.223337696099	329.401635860039	837.521838364122	1368.218789412120	479.057258988604	770.619229673776	1439.596727419345	661.886486661171	734.997699719526	1497.080804885426	480.857721679553	798.804509049141	943.625900622357	616.254970613353	765.226149915269	964.110326501565	344.074039684170	829.243437002664	739.184202416195	588.263995953364	745.380399327752	634.066173017454	650.062444847379	817.205522624027	578.487056220514	567.673638274893	813.477713014001	490.678395515291	572.559681859972	851.891676646025	787.519006757788	372.191132139606	810.069518697838	658.137473500957	296.491384724049	917.718843930295	600.257163594658	352.584839471319	936.135919412877	512.897003036593	345.187102936233	880.819224344311	439.707325355420	341.543893551549	748.252592265103	371.041537929911	300.062953214640	764.394962964544	242.878968590440	356.235189548218	783.951410378911	402.975027545676	580.897967936744	711.150724495734	300.336200836054	642.349397177728	750.320856350222	205.338143713264	577.714420586029	613.941652551241	42.676026692369	543.057037417929	784.361158913549	96.967486308860	584.111241836779	695.403854589716	36.112987104422	620.887308262927	903.835520842612	44.248564388015	615.003695349096	592.942470910638	144.525514283905	403.995156317712	653.333348132636	108.615026599020	321.435429913027	755.356601160526	136.338862677461	336.937581369298	850.390232230294	40.232166069629	306.667150770695	600.285645116873	1104.376704062441	225.108278925267	592.091769220689	844.203113567709	219.231135389534	815.685787552098	1104.839943431759	798.615100768216	1039.010306699248	989.786632129698	741.583425018422	
54	33.279000000000	563.595160864075	1009.280936417911	518.143718805309	718.753572711183	1439.920409255234	330.262055010767	837.843468089474	1368.293411517990	478.709798727441	772.828650971473	1439.617261412562	662.229865460541	735.556987924561	1497.368226002701	481.699653131202	798.540740361168	943.601408847356	615.890528580334	763.640438089660	964.623775538565	343.882201647348	826.278253954710	738.549439118989	587.859542660770	741.500619270477	634.220944841578	650.331609434961	812.276853219511	577.847504676103	567.829070128070	807.738551907168	490.422756933039	572.953898961732	850.535780273514	789.057200511157	371.969023017206	809.527576897308	659.302565448669	296.200863882204	917.303237479999	602.217312390575	352.506122508450	937.278958447353	516.556272954684	344.965849606773	886.014291757712	442.231133009594	340.772890445682	758.285100736022	365.370020009759	299.366525151517	783.473516021754	238.098627461983	354.512644869101	778.052254970172	402.855455242053	581.187824721060	704.958589615810	300.396042711045	642.538518084440	744.035252859370	205.298845957020	577.892290156525	607.380482260326	42.686857304189	543.104758592574	777.826491150666	96.903880849927	584.220955950091	688.845556195011	36.102531815882	620.947868030441	897.285996043195	44.086343542451	615.112027355755	619.764267491194	127.461999062917	402.714901380709	681.819838402688	96.866070512057	319.304379840897	781.708431021480	131.602890833423	334.344615250806	883.048717410714	43.088913519228	302.341933014903	594.314335831382	1107.026845214344	227.194223281478	584.056845673850	846.755090897308	222.249162541582	823.635002356640	1105.444356844393	797.456985496131	1050.351956006229	1000.503373171692	735.866024138103	
55	33.292000000000	563.503681395734	1009.932234529839	519.221966831684	718.062680389078	1440.488647063820	330.974729855077	838.176920490267	1368.259251606733	478.258994483641	774.918828784943	1439.483307067221	662.428324190967	736.074233585826	1497.535518574895	482.410680539004	798.337303579641	943.485832967721	615.418821265768	762.173838518673	964.962436287912	343.564756842483	823.476583475348	737.877677850302	587.395015316539	737.762797012653	634.334267669512	650.532089366534	807.475467277524	577.193883517584	567.935834579884	802.132762904719	490.154550456105	573.306120443779	848.826566411744	789.912741057721	371.636162416152	808.362608176430	659.908768962508	295.803871763489	915.974714829850	603.339120314388	352.633169472392	937.433986946981	519.656126133318	344.922612306905	890.423278952904	444.514050527651	340.081681841437	768.381285194829	359.468211024099	298.457990618459	802.744559750571	233.730291901639	352.700151024090	772.249094541011	402.700937130117	581.418192861360	698.858170633102	300.438043548294	642.683902438500	737.815860670629	205.230661113842	578.038843762293	600.836965409640	42.688835992534	543.166939702699	771.295309606177	96.832576332104	584.294084104243	682.288017916780	36.091231378457	620.998779579165	890.736163216497	43.926706747433	615.213527890777	647.772787066793	111.026063231521	401.014186883603	711.370611699266	85.914417748010	316.940157837858	808.557397039720	127.655845004687	331.721243351900	915.876997147220	47.228994130086	298.332054425495	588.868209700324	1109.445125407354	229.156283742305	576.946143350806	849.065347928316	225.149962160759	831.398161941727	1105.904810379805	795.913218764480	1060.947252124542	1011.088685699995	729.815653898357	
56	33.305000000000	563.459524616671	1010.433185196623	520.137480590766	717.446630246776	1440.910470380665	331.511148479342	838.515823345782	1368.113585912571	477.696229836705	776.865703183503	1439.209601982904	662.463396094079	736.552172417864	1497.580515912071	482.956556933171	798.198125859857	943.286998227721	614.846005784346	760.840625846545	965.118481608046	343.123875725526	820.883854570564	737.172059407854	586.894340354241	734.204172696284	634.399786804596	650.662545493172	802.848859549440	576.530707344848	567.991414674517	796.698653633235	489.863286524243	573.596763904910	846.816536979242	790.113016763209	371.215354499634	806.655572847960	659.996476568690	295.282717386661	913.845436479414	603.677578759830	352.940897519552	936.729850028687	522.218284917148	345.054348423963	894.088221826472	446.597738589447	339.502179572334	778.520728893893	353.595375333302	297.315897631941	821.912197623493	230.052507873756	350.878556608627	766.576478891468	402.505497233321	581.579445568296	692.878948277758	300.461784791946	642.782812909676	731.676892926471	205.133143775893	578.148417997803	594.308684694440	42.685200363655	543.243344122240	764.767315703503	96.756993617349	584.329795461817	675.730869980702	36.081037687765	621.041329412973	884.185198962830	43.778703175692	615.307535983942	676.468217298634	95.813008472110	398.895706293840	741.531114919089	76.208809824210	314.432548618825	835.465700582368	124.790740965011	329.215316027047	948.314945157147	52.779249846863	294.964796602593	583.990690886036	1111.569992723200	230.955062918258	570.757496885582	851.071936727670	227.901067102173	838.966789250750	1106.233830323137	793.982499589575	1070.787650403244	1021.476504797111	723.461415918264	
57	33.318000000000	563.450977531550	1010.780118636570	520.886070349419	716.905593707907	1441.176141738589	331.843385811540	838.853329356368	1367.864050424960	477.010804309674	778.652437362782	1438.824283814854	662.315570731940	736.992007430251	1497.509399124647	483.302216563285	798.128758872357	943.017957274742	614.177708909956	759.653577076306	965.097863916532	342.563523662278	818.528433119786	736.436590520358	586.370985432031	730.852079155570	634.415064294234	650.719754927434	798.429727761484	575.863452266263	567.986590705550	791.461232289030	489.540597572421	573.804570391394	844.581497040583	789.725438140689	370.724634260885	804.511906686315	659.635128863461	294.621875916563	911.068361395998	603.330429213787	353.371209782443	935.321427707640	524.284397586863	345.338872629963	897.069092540199	448.518679618926	339.049049998476	788.625732730170	347.985391166389	295.946576697616	840.645761598799	227.256615397616	349.125565631599	761.058265293884	402.266559457260	581.662318269780	687.039533562796	300.469856377773	642.831591992136	725.626375744173	205.009320941740	578.215822642671	587.791115570079	42.680587188865	543.328920932822	758.242340330537	96.681148124730	584.329896070197	669.173533533945	36.074215830838	621.076367727635	877.632059968362	43.650399296027	615.393600774894	705.250210827530	82.282476811535	396.410300631804	771.749059176433	68.055500486995	311.892517122892	861.948673370565	123.172932102166	326.959769801972	979.796652044094	59.713921714323	292.505001622346	579.717063067431	1113.351793323078	232.549100527082	565.492844018322	852.724904603524	230.465915838979	846.319902736230	1106.458674668735	791.667754911132	1079.862638675406	1031.613635099921	716.831961786403	
